<svg height="100" width="100" xmlns="http://www.w3.org/2000/svg" viewBox="0 0 32 32" xml:space="preserve"><path d="M19.1 11.1c-.1-.2-.3-.3-.4-.3-.9.2-1.7 0-2-.5s-.1-1.3.6-2c.1-.1.1-.4 0-.5-.9-.9-2-1.6-3.3-1.9-.2-.1-.4.1-.5.3-.3.8-.9 1.4-1.5 1.4s-1.2-.6-1.5-1.5c-.1-.2-.3-.3-.5-.3-1.3.3-2.4 1-3.3 1.9-.1.1-.1.4 0 .5.6.7.9 1.5.6 2s-1.1.7-2 .5c-.2 0-.4.1-.4.3-.2.6-.3 1.3-.3 1.9s.1 1.3.3 1.9c.1.2.3.3.4.3.9-.2 1.7 0 2 .5s.1 1.3-.6 2c-.1.1-.1.4 0 .5.9.9 2 1.6 3.3 1.9h.1c.2 0 .3-.1.4-.3.3-.9.8-1.5 1.5-1.5s1.2.6 1.5 1.5c.1.2.3.3.5.3 1.3-.3 2.4-1 3.3-1.9.1-.1.1-.4 0-.5-.6-.7-.9-1.5-.6-2s1.1-.7 2-.5c.2 0 .4-.1.4-.3.2-.6.3-1.3.3-1.9s-.1-1.2-.3-1.8m-6.2 2.3c-.1.1-.1.2-.2.3-.2.2-.4.3-.7.3-.1 0-.3 0-.4-.1s-.2-.1-.3-.2-.2-.2-.2-.3-.1-.3-.1-.4 0-.3.1-.4.1-.2.2-.3c.4-.4 1-.4 1.4 0 .1.1.2.2.2.3s.1.3.1.4 0 .3-.1.4"/><path d="M28.9 17.6 26 11.8C25.9 6.4 21.4 2 16 2c-2.4 0-4.6.8-6.4 2.3Q10.8 4 12 4c5 0 9 4 9 9s-4 9-9 9c-1.1 0-2.1-.2-3-.5V27c0 .5.3.9.8 1l10 2h.2c.2 0 .5-.1.6-.2.2-.2.4-.5.4-.8v-4h2c1.7 0 3-1.3 3-3v-3h2c.3 0 .7-.2.9-.5s.1-.6 0-.9"/></svg>