<svg width="100" height="100" viewBox="0 0 64 64" data-name="Layer 1" xmlns="http://www.w3.org/2000/svg"><path d="M9 48v14h12V48a7 7 0 0 0 7-7V30h-4v8.98A4.02 4.02 0 0 1 19.98 43h-2.007a5 5 0 1 0-5.946 0H10.02A4.02 4.02 0 0 1 6 38.98V30H2v11a7 7 0 0 0 7 7m49-9.02A4.02 4.02 0 0 1 53.98 43h-2.007a5 5 0 1 0-5.946 0H44.02A4.02 4.02 0 0 1 40 38.98V30h-4v11a7 7 0 0 0 7 7v14h12V48a7 7 0 0 0 7-7V30h-4ZM2 25h26v4H2zm34 0h26v4H36zM4 13A11 11 0 1 0 15 2 11 11 0 0 0 4 13m10-7.5A5.507 5.507 0 0 0 8.5 11h-1A6.51 6.51 0 0 1 14 4.5ZM60 2H38v22h22Zm-2.5 18h-1V6h1Z"/></svg>